<svg xmlns="http://www.w3.org/2000/svg"
     xmlns:xlink="http://www.w3.org/1999/xlink"
     contentStyleType="text/css"
     data-diagram-type="DESCRIPTION"
     version="1.1"
     viewBox="0 0 236 200"
     style="width:300px;background:#FFFFFF;"
     width="300px"
     zoomAndPan="magnify">
  <defs/>
  <g>
    <!--entity A-->
    <g>
      <rect fill="#FFC0CB" height="36.4883" rx="35" ry="35" style="stroke:#FF0000;stroke-width:0.5;" width="29.6592" x="200.41" y="7"/>
      <text fill="#000000" font-family="sans-serif" font-size="14" lengthAdjust="spacing" textLength="9.6592" x="210.41" y="30.5352">A</text>
    </g>
    <!--entity B-->
    <g>
      <rect fill="#FFC0CB" height="36.4883" rx="35" ry="35" style="stroke:#FF0000;stroke-width:0.5;" width="28.0527" x="137.22" y="7"/>
      <text fill="#000000" font-family="sans-serif" font-size="14" lengthAdjust="spacing" textLength="8.0527" x="147.22" y="30.5352">B</text>
    </g>
    <!--entity C-->
    <g>
      <rect fill="#FFC0CB" height="36.4883" rx="35" ry="35" style="stroke:#FF0000;stroke-width:0.5;" width="29.6865" x="72.4" y="7"/>
      <text fill="#000000" font-family="sans-serif" font-size="14" lengthAdjust="spacing" textLength="9.6865" x="82.4" y="30.5352">C</text>
    </g>
    <!--link B to A-->
    <g>
      <path d="M165.74,25.25 C177.22,25.25 182.69,25.25 194.16,25.25" fill="none" id="B-to-A" style="stroke:#181818;stroke-width:1;"/>
      <polygon fill="#181818" points="200.16,25.25,191.16,21.25,195.16,25.25,191.16,29.25,200.16,25.25" style="stroke:#181818;stroke-width:1;"/>
    </g>
    <!--link C to B-->
    <g>
      <path d="M102.24,25.25 C113.86,25.25 119.47,25.25 131.08,25.25" fill="none" id="C-to-B" style="stroke:#181818;stroke-width:1;"/>
      <polygon fill="#181818" points="137.08,25.25,128.08,21.25,132.08,25.25,128.08,29.25,137.08,25.25" style="stroke:#181818;stroke-width:1;"/>
    </g>
  </g>

  <g transform="translate(0,70)">
    <!--entity A-->
    <g>
      <rect fill="#FFC0CB" height="36.4883" rx="35" ry="35" style="stroke:#FF0000;stroke-width:0.5;" width="29.6592" x="200.41" y="7"/>
      <text fill="#000000" font-family="sans-serif" font-size="14" lengthAdjust="spacing" textLength="9.6592" x="210.41" y="30.5352">A</text>
    </g>
    <!--entity B-->
    <g>
      <rect fill="#FFC0CB" height="36.4883" rx="35" ry="35" style="stroke:#FF0000;stroke-width:0.5;" width="28.0527" x="137.22" y="7"/>
      <text fill="#000000" font-family="sans-serif" font-size="14" lengthAdjust="spacing" textLength="8.0527" x="147.22" y="30.5352">B</text>
    </g>
    <!--entity C-->
    <g>
      <rect fill="#FFC0CB" height="36.4883" rx="35" ry="35" style="stroke:#FF0000;stroke-width:0.5;" width="29.6865" x="72.4" y="7"/>
      <text fill="#000000" font-family="sans-serif" font-size="14" lengthAdjust="spacing" textLength="9.6865" x="82.4" y="30.5352">C</text>
    </g>
    <!--entity D-->
    <g>
      <rect fill="#98FB98" height="36.4883" rx="35" ry="35" style="stroke:#008080;stroke-width:0.5;" width="30.4863" x="7" y="7"/>
      <text fill="#000000" font-family="sans-serif" font-size="14" lengthAdjust="spacing" textLength="10.4863" x="17" y="30.5352">D</text>
    </g>
    <!--link B to A-->
    <g>
      <path d="M165.74,25.25 C177.22,25.25 182.69,25.25 194.16,25.25" fill="none" id="B-to-A" style="stroke:#181818;stroke-width:1;"/>
      <polygon fill="#181818" points="200.16,25.25,191.16,21.25,195.16,25.25,191.16,29.25,200.16,25.25" style="stroke:#181818;stroke-width:1;"/>
    </g>
    <!--link C to B-->
    <g>
      <path d="M102.24,25.25 C113.86,25.25 119.47,25.25 131.08,25.25" fill="none" id="C-to-B" style="stroke:#181818;stroke-width:1;"/>
      <polygon fill="#181818" points="137.08,25.25,128.08,21.25,132.08,25.25,128.08,29.25,137.08,25.25" style="stroke:#181818;stroke-width:1;"/>
    </g>
    <!--link D to C-->
    <g>
      <path d="M37.99,25.25 C49.4,25.25 54.82,25.25 66.23,25.25" fill="none" id="D-to-C" style="stroke:#181818;stroke-width:1;"/>
      <polygon fill="#181818" points="72.23,25.25,63.23,21.25,67.23,25.25,63.23,29.25,72.23,25.25" style="stroke:#181818;stroke-width:1;"/>
    </g>
  </g>

  <g transform="translate(0,145)">
    <!--entity A-->
    <g>
      <rect fill="#FFC0CB" height="36.4883" rx="35" ry="35" style="stroke:#FF0000;stroke-width:0.5;" width="29.6592" x="200.41" y="7"/>
      <text fill="#000000" font-family="sans-serif" font-size="14" lengthAdjust="spacing" textLength="9.6592" x="210.41" y="30.5352">A</text>
    </g>
    <!--entity B-->
    <g>
      <rect fill="#FFC0CB" height="36.4883" rx="35" ry="35" style="stroke:#FF0000;stroke-width:0.5;" width="28.0527" x="137.22" y="7"/>
      <text fill="#000000" font-family="sans-serif" font-size="14" lengthAdjust="spacing" textLength="8.0527" x="147.22" y="30.5352">B</text>
    </g>
    <!--entity C-->
    <g>
      <rect fill="#FFC0CB" height="36.4883" rx="35" ry="35" style="stroke:#FF0000;stroke-width:0.5;" width="29.6865" x="72.4" y="7"/>
      <text fill="#000000" font-family="sans-serif" font-size="14" lengthAdjust="spacing" textLength="9.6865" x="82.4" y="30.5352">C</text>
    </g>
    <!--entity Z-->
    <g>
      <rect fill="#87CEEB" height="36.4883" rx="35" ry="35" style="stroke:#008080;stroke-width:0.5;" width="30.4863" x="7" y="7"/>
      <text fill="#000000" font-family="sans-serif" font-size="14" lengthAdjust="spacing" textLength="10.4863" x="17" y="30.5352">Z</text>
    </g>
    <!--link B to A-->
    <g>
      <path d="M165.74,25.25 C177.22,25.25 182.69,25.25 194.16,25.25" fill="none" id="B-to-A" style="stroke:#181818;stroke-width:1;"/>
      <polygon fill="#181818" points="200.16,25.25,191.16,21.25,195.16,25.25,191.16,29.25,200.16,25.25" style="stroke:#181818;stroke-width:1;"/>
    </g>
    <!--link C to B-->
    <g>
      <path d="M102.24,25.25 C113.86,25.25 119.47,25.25 131.08,25.25" fill="none" id="C-to-B" style="stroke:#181818;stroke-width:1;"/>
      <polygon fill="#181818" points="137.08,25.25,128.08,21.25,132.08,25.25,128.08,29.25,137.08,25.25" style="stroke:#181818;stroke-width:1;"/>
    </g>
    <!--link Z to C-->
    <g>
      <path d="M37.99,25.25 C49.4,25.25 54.82,25.25 66.23,25.25" fill="none" id="D-to-C" style="stroke:#181818;stroke-width:1;"/>
      <polygon fill="#181818" points="72.23,25.25,63.23,21.25,67.23,25.25,63.23,29.25,72.23,25.25" style="stroke:#181818;stroke-width:1;"/>
    </g>
  </g>
</svg>
